<svg width="14" height="19" viewBox="0 0 14 19" fill="none" xmlns="http://www.w3.org/2000/svg">
<path d="M1.14472 0.962738C0.911267 1.08181 0.765234 1.28299 0.683517 1.53534C0.604511 1.77931 0.582221 2.0796 0.592412 2.42521C0.61265 3.11152 0.765829 4.06711 0.964437 5.3061L0.967959 5.32807L2.67277 15.9635L2.67613 15.9845C2.77263 16.5865 2.84951 17.0661 2.96141 17.4224C3.07639 17.7884 3.24404 18.0773 3.55831 18.237C3.87258 18.3967 4.20477 18.3617 4.56822 18.2388C4.9219 18.1191 5.3546 17.8984 5.89777 17.6214L5.91671 17.6117L11.8204 14.6006L11.8393 14.5909C12.3825 14.3139 12.8152 14.0932 13.1197 13.8771C13.4326 13.6551 13.656 13.4067 13.7112 13.0586C13.7665 12.7104 13.631 12.4051 13.4022 12.0971C13.1795 11.7974 12.8364 11.4535 12.4057 11.0219L12.3907 11.0069L4.78224 3.38261L4.76651 3.36685C3.88016 2.47865 3.19654 1.79361 2.65286 1.37429C2.37907 1.16313 2.1229 1.00486 1.87901 0.925578C1.62677 0.843574 1.37817 0.843668 1.14472 0.962738Z" fill="#EEF6F8" stroke="#446EE2" stroke-width="0.5"/>
</svg>
