<svg width="61" height="61" viewBox="0 0 61 61" fill="none" xmlns="http://www.w3.org/2000/svg">
<rect x="1" y="1" width="59" height="59" rx="29.5" fill="#1E2023" stroke="#EEF6F8" stroke-opacity="0.5"/>
<path opacity="0.8" d="M22.8845 32.4932C23.2853 32.894 23.8865 32.854 24.2874 32.4932L28.8967 27.6434V39.1468C28.8967 39.7079 29.2975 40.1087 29.8587 40.1087H31.1413C31.6624 40.1087 32.1033 39.7079 32.1033 39.1468V27.6434L36.6725 32.4531C37.0734 32.854 37.6746 32.854 38.0754 32.4932L38.9572 31.6114C39.3179 31.2106 39.3179 30.6094 38.9572 30.2487L31.1413 22.4328C30.7806 22.072 30.1793 22.072 29.8186 22.4328L22.0027 30.2487C21.642 30.6094 21.642 31.2106 22.0027 31.6114L22.8845 32.4932Z" fill="white"/>
</svg>
